<?xml version="1.0" encoding="UTF-8"?>
<svg width="50" height="50" viewBox="0 0 50 50" xmlns="http://www.w3.org/2000/svg">
  <!-- Spider-Man body -->
  <path d="M25 5C15 5 7 13 7 23C7 33 15 41 25 41C35 41 43 33 43 23C43 13 35 5 25 5Z" fill="#e63946"/>
  
  <!-- Spider-Man web pattern -->
  <path d="M25 10C20 10 15 15 15 20C15 25 20 30 25 30C30 30 35 25 35 20C35 15 30 10 25 10Z" fill="#1d3557"/>
  
  <!-- Spider-Man eyes -->
  <path d="M20 15C18 15 17 16 17 18C17 20 18 21 20 21C22 21 23 20 23 18C23 16 22 15 20 15Z" fill="white"/>
  <path d="M30 15C28 15 27 16 27 18C27 20 28 21 30 21C32 21 33 20 33 18C33 16 32 15 30 15Z" fill="white"/>
  
  <!-- Spider-Man web lines -->
  <path d="M25 30L25 41" stroke="#1d3557" stroke-width="2"/>
  <path d="M15 20L7 23" stroke="#1d3557" stroke-width="2"/>
  <path d="M35 20L43 23" stroke="#1d3557" stroke-width="2"/>
</svg> 